<svg>
    <symbol id="icon-search"  viewBox="0 0 17 18"  xmlns="http://www.w3.org/2000/svg">
        <path d="M11.9276 12.7748L15.37 17.0644" stroke="white" stroke-linecap="round"/>
        <circle cx="8.48533" cy="8.48526" r="5.5" transform="rotate(-38.7469 8.48533 8.48526)" stroke="white"/>
    </symbol>
    <symbol id="icon-watch"  viewBox="0 0 12 12"  xmlns="http://www.w3.org/2000/svg">
        <circle cx="6" cy="6" r="5.5" stroke="#696969"/>
        <path d="M4 6H6.5V2.5" stroke="#696969"/>
    </symbol>
    <symbol id="icon-like"  viewBox="0 0 16 14"  xmlns="http://www.w3.org/2000/svg">
        <path d="M8.34372 2.25572H8.36529C9.29718 1.44175 11.7563 0.165765 13.9565 1.76734C17.3111 4.20921 14.2458 9.5 8.36529 13H8.34372M8.34378 2.25572H8.32221C7.39032 1.44175 4.93121 0.165765 2.73102 1.76734C-0.623552 4.20921 2.44172 9.5 8.32221 13H8.34378"/>
    </symbol>
    <symbol id="icon-note"  viewBox="0 0 20 19"  xmlns="http://www.w3.org/2000/svg">
        <path d="M8 16V1.9697L19 1V13" stroke="#4E4E4E"/>
        <ellipse cx="4.5" cy="16" rx="3.5" ry="2" stroke="#4E4E4E"/>
        <ellipse cx="15.5" cy="13" rx="3.5" ry="2" stroke="#4E4E4E"/>
    </symbol>
    <symbol id="icon-volume" fill="none" viewBox="0 0 14 18" xmlns="http://www.w3.org/2000/svg">
        <mask id="path-1-inside-1_2985_507" fill="white">
        <path fill-rule="evenodd" clip-rule="evenodd" d="M8 0L3 5H0V13H3L8 18V0Z"/>
        </mask>
        <path d="M3 5V6H3.41421L3.70711 5.70711L3 5ZM8 0H9V-2.41421L7.29289 -0.707107L8 0ZM0 5V4H-1V5H0ZM0 13H-1V14H0V13ZM3 13L3.70711 12.2929L3.41421 12H3V13ZM8 18L7.29289 18.7071L9 20.4142V18H8ZM3.70711 5.70711L8.70711 0.707107L7.29289 -0.707107L2.29289 4.29289L3.70711 5.70711ZM0 6H3V4H0V6ZM1 13V5H-1V13H1ZM3 12H0V14H3V12ZM8.70711 17.2929L3.70711 12.2929L2.29289 13.7071L7.29289 18.7071L8.70711 17.2929ZM7 0V18H9V0H7Z" fill="white" mask="url(#path-1-inside-1_2985_507)"/>
        <path d="M11 13C12.1046 13 13 11.2091 13 9C13 6.79086 12.1046 5 11 5" stroke="white"/>
    </symbol>
    <symbol id="icon-dislike"  viewBox="0 0 16 15"  xmlns="http://www.w3.org/2000/svg">
        <path d="M8.34372 3.25572H8.36529C9.29718 2.44175 11.7563 1.16576 13.9565 2.76734C17.3111 5.20921 14.2458 10.5 8.36529 14H8.34372M8.34378 3.25572H8.32221C7.39032 2.44175 4.93121 1.16576 2.73102 2.76734C-0.623552 5.20921 2.44172 10.5 8.32221 14H8.34378" />
        <path d="M1 1L15 13.5" />
    </symbol>
    <symbol id="icon-prev" viewBox="0 0 16 14"  xmlns="http://www.w3.org/2000/svg">
        <path d="M1 2V12.5" stroke="white"/>
        <path d="M3 7L12.75 0.937823L12.75 13.0622L3 7Z" fill="#D9D9D9"/>
    </symbol>
    <symbol id="icon-play" viewBox="0 0 15 20"  xmlns="http://www.w3.org/2000/svg">
        <path d="M15 10L-1.01012e-06 0.47372L-1.84293e-06 19.5263L15 10Z" fill="#D9D9D9"/>
    </symbol>
    <symbol id="icon-pause" viewBox="0 0 15 19"  xmlns="http://www.w3.org/2000/svg">
        <g id="Group 48096408">
        <rect id="Rectangle 3769" width="5" height="19" fill="#D9D9D9"/>
        <rect id="Rectangle 3770" x="10" width="5" height="19" fill="#D9D9D9"/>
        </g>
    </symbol>
    <symbol id="icon-next" viewBox="0 0 16 14"  xmlns="http://www.w3.org/2000/svg">
        <path d="M15 2V12.5" stroke="white"/>
        <path d="M13 7L3.25 0.937823L3.25 13.0622L13 7Z" fill="#D9D9D9"/>
    </symbol>
    <symbol id="icon-repeat" viewBox="0 0 20 18"  xmlns="http://www.w3.org/2000/svg">
        <path d="M10 3L5 0.113249V5.88675L10 3ZM7 14.5C3.96243 14.5 1.5 12.0376 1.5 9H0.5C0.5 12.5899 3.41015 15.5 7 15.5V14.5ZM1.5 9C1.5 5.96243 3.96243 3.5 7 3.5V2.5C3.41015 2.5 0.5 5.41015 0.5 9H1.5Z" fill="#696969"/>
        <path d="M10 15L15 17.8868V12.1132L10 15ZM13 3.5C16.0376 3.5 18.5 5.96243 18.5 9H19.5C19.5 5.41015 16.5899 2.5 13 2.5V3.5ZM18.5 9C18.5 12.0376 16.0376 14.5 13 14.5V15.5C16.5899 15.5 19.5 12.5899 19.5 9H18.5Z" fill="#696969"/>
    </symbol>
    <symbol id="icon-shuffle" viewBox="0 0 20 18"  xmlns="http://www.w3.org/2000/svg">
        <path d="M19.5 15L14.5 12.1132V17.8868L19.5 15ZM10.1632 12.0833L9.70863 12.2916L10.1632 12.0833ZM7.33683 5.91673L6.8823 6.12505L7.33683 5.91673ZM0.5 3.5H2.79151V2.5H0.5V3.5ZM6.8823 6.12505L9.70863 12.2916L10.6177 11.8749L7.79137 5.7084L6.8823 6.12505ZM14.7085 15.5H15V14.5H14.7085V15.5ZM9.70863 12.2916C10.6047 14.2466 12.5579 15.5 14.7085 15.5V14.5C12.949 14.5 11.3508 13.4745 10.6177 11.8749L9.70863 12.2916ZM2.79151 3.5C4.55105 3.5 6.14918 4.52552 6.8823 6.12505L7.79137 5.7084C6.89533 3.75341 4.94205 2.5 2.79151 2.5V3.5Z" fill="#696969"/>
        <path d="M19.5 3L14.5 5.88675V0.113249L19.5 3ZM10.1632 5.91673L9.70863 5.7084L10.1632 5.91673ZM7.33683 12.0833L6.8823 11.8749L7.33683 12.0833ZM0.5 14.5H2.79151V15.5H0.5V14.5ZM6.8823 11.8749L9.70863 5.7084L10.6177 6.12505L7.79137 12.2916L6.8823 11.8749ZM14.7085 2.5H15V3.5H14.7085V2.5ZM9.70863 5.7084C10.6047 3.75341 12.5579 2.5 14.7085 2.5V3.5C12.949 3.5 11.3508 4.52552 10.6177 6.12505L9.70863 5.7084ZM2.79151 14.5C4.55105 14.5 6.14918 13.4745 6.8823 11.8749L7.79137 12.2916C6.89533 14.2466 4.94205 15.5 2.79151 15.5V14.5Z" fill="#696969"/>
    </symbol>
    <symbol id="icon-exit" viewBox="0 0 40 40"  xmlns="http://www.w3.org/2000/svg">
        <path d="M19.2839 28.1637C14.7495 28.1637 11.0608 24.4749 11.0608 19.9406C11.0608 15.6864 14.2509 12.1687 18.4809 11.758C18.7518 11.731 19.0076 11.88 19.1193 12.1271C19.2315 12.3743 19.1743 12.6651 18.9768 12.8507C17.9456 13.8215 17.378 15.1311 17.378 16.5389C17.378 19.3352 19.653 21.6102 22.4492 21.6102C23.9741 21.6102 25.4036 20.9324 26.3721 19.7518C26.5443 19.5419 26.8314 19.4658 27.0839 19.5597C27.338 19.6546 27.5032 19.9007 27.4956 20.1716C27.3715 24.653 23.7642 28.1637 19.2839 28.1637ZM16.9501 13.3844C14.2267 14.3422 12.3283 16.9226 12.3283 19.9406C12.3283 23.7762 15.4483 26.8962 19.2839 26.8962C22.4961 26.8962 25.1775 24.762 25.9836 21.8028C24.9508 22.4984 23.7265 22.8788 22.4492 22.8788C18.9536 22.8788 16.1099 20.0356 16.1099 16.5395C16.1099 15.4106 16.4013 14.3325 16.9501 13.3844Z" fill="white"/>
        <circle cx="19.5576" cy="20.2549" r="19" stroke="white"/>
    </symbol>
    <symbol ></symbol>
</svg>

